<mxfile host="app.diagrams.net" modified="2022-02-07T07:07:40.264Z" agent="5.0 (Windows NT 10.0; Win64; x64) AppleWebKit/537.36 (KHTML, like Gecko) Chrome/98.0.4758.80 Safari/537.36 Edg/98.0.1108.43" etag="EF631ZrMbsu9FXjWeUpu" version="16.5.3" type="github">
  <diagram id="C5RBs43oDa-KdzZeNtuy" name="Page-1">
    <mxGraphModel dx="649" dy="357" grid="1" gridSize="10" guides="1" tooltips="1" connect="1" arrows="1" fold="1" page="1" pageScale="1" pageWidth="827" pageHeight="1169" math="0" shadow="0">
      <root>
        <mxCell id="WIyWlLk6GJQsqaUBKTNV-0" />
        <mxCell id="WIyWlLk6GJQsqaUBKTNV-1" parent="WIyWlLk6GJQsqaUBKTNV-0" />
        <mxCell id="DZMT5LP3rV5EGNULE5ut-1" style="edgeStyle=orthogonalEdgeStyle;rounded=0;orthogonalLoop=1;jettySize=auto;html=1;exitX=0.055;exitY=0.742;exitDx=0;exitDy=0;entryX=0.25;entryY=1;entryDx=0;entryDy=0;exitPerimeter=0;" edge="1" parent="WIyWlLk6GJQsqaUBKTNV-1" source="DZMT5LP3rV5EGNULE5ut-9" target="DZMT5LP3rV5EGNULE5ut-14">
          <mxGeometry relative="1" as="geometry">
            <Array as="points">
              <mxPoint x="701" y="439" />
              <mxPoint x="460" y="440" />
            </Array>
          </mxGeometry>
        </mxCell>
        <mxCell id="DZMT5LP3rV5EGNULE5ut-2" value="Order Confirmation Detail" style="edgeLabel;html=1;align=center;verticalAlign=middle;resizable=0;points=[];" vertex="1" connectable="0" parent="DZMT5LP3rV5EGNULE5ut-1">
          <mxGeometry x="0.5985" relative="1" as="geometry">
            <mxPoint x="52" as="offset" />
          </mxGeometry>
        </mxCell>
        <mxCell id="DZMT5LP3rV5EGNULE5ut-3" style="edgeStyle=orthogonalEdgeStyle;rounded=0;orthogonalLoop=1;jettySize=auto;html=1;exitX=0;exitY=1;exitDx=0;exitDy=0;entryX=0.071;entryY=0.983;entryDx=0;entryDy=0;entryPerimeter=0;" edge="1" parent="WIyWlLk6GJQsqaUBKTNV-1" source="DZMT5LP3rV5EGNULE5ut-9" target="DZMT5LP3rV5EGNULE5ut-14">
          <mxGeometry relative="1" as="geometry">
            <Array as="points">
              <mxPoint x="718" y="450" />
              <mxPoint x="439" y="450" />
            </Array>
          </mxGeometry>
        </mxCell>
        <mxCell id="DZMT5LP3rV5EGNULE5ut-4" value="Invoice Detail" style="edgeLabel;html=1;align=center;verticalAlign=middle;resizable=0;points=[];" vertex="1" connectable="0" parent="DZMT5LP3rV5EGNULE5ut-3">
          <mxGeometry x="0.4619" relative="1" as="geometry">
            <mxPoint x="38" as="offset" />
          </mxGeometry>
        </mxCell>
        <mxCell id="DZMT5LP3rV5EGNULE5ut-5" style="edgeStyle=orthogonalEdgeStyle;rounded=0;orthogonalLoop=1;jettySize=auto;html=1;exitX=1;exitY=0;exitDx=0;exitDy=0;entryX=0.002;entryY=0.377;entryDx=0;entryDy=0;entryPerimeter=0;" edge="1" parent="WIyWlLk6GJQsqaUBKTNV-1" source="DZMT5LP3rV5EGNULE5ut-9" target="DZMT5LP3rV5EGNULE5ut-20">
          <mxGeometry relative="1" as="geometry" />
        </mxCell>
        <mxCell id="DZMT5LP3rV5EGNULE5ut-6" value="Deposit Detail" style="edgeLabel;html=1;align=center;verticalAlign=middle;resizable=0;points=[];" vertex="1" connectable="0" parent="DZMT5LP3rV5EGNULE5ut-5">
          <mxGeometry x="-0.238" relative="1" as="geometry">
            <mxPoint x="16" as="offset" />
          </mxGeometry>
        </mxCell>
        <mxCell id="DZMT5LP3rV5EGNULE5ut-7" style="edgeStyle=orthogonalEdgeStyle;rounded=0;orthogonalLoop=1;jettySize=auto;html=1;exitX=0;exitY=1;exitDx=0;exitDy=0;entryX=0.144;entryY=-0.014;entryDx=0;entryDy=0;entryPerimeter=0;" edge="1" parent="WIyWlLk6GJQsqaUBKTNV-1" source="DZMT5LP3rV5EGNULE5ut-9" target="DZMT5LP3rV5EGNULE5ut-17">
          <mxGeometry relative="1" as="geometry" />
        </mxCell>
        <mxCell id="DZMT5LP3rV5EGNULE5ut-8" value="Stock Detail" style="edgeLabel;html=1;align=center;verticalAlign=middle;resizable=0;points=[];" vertex="1" connectable="0" parent="DZMT5LP3rV5EGNULE5ut-7">
          <mxGeometry x="-0.1667" relative="1" as="geometry">
            <mxPoint as="offset" />
          </mxGeometry>
        </mxCell>
        <mxCell id="DZMT5LP3rV5EGNULE5ut-9" value="Selling system" style="ellipse;whiteSpace=wrap;html=1;" vertex="1" parent="WIyWlLk6GJQsqaUBKTNV-1">
          <mxGeometry x="700" y="380" width="120" height="80" as="geometry" />
        </mxCell>
        <mxCell id="DZMT5LP3rV5EGNULE5ut-10" style="edgeStyle=orthogonalEdgeStyle;rounded=0;orthogonalLoop=1;jettySize=auto;html=1;exitX=1;exitY=0.25;exitDx=0;exitDy=0;entryX=0;entryY=0;entryDx=0;entryDy=0;" edge="1" parent="WIyWlLk6GJQsqaUBKTNV-1" source="DZMT5LP3rV5EGNULE5ut-14" target="DZMT5LP3rV5EGNULE5ut-9">
          <mxGeometry relative="1" as="geometry">
            <Array as="points">
              <mxPoint x="550" y="372" />
            </Array>
          </mxGeometry>
        </mxCell>
        <mxCell id="DZMT5LP3rV5EGNULE5ut-11" value="Order Info" style="edgeLabel;html=1;align=center;verticalAlign=middle;resizable=0;points=[];" vertex="1" connectable="0" parent="DZMT5LP3rV5EGNULE5ut-10">
          <mxGeometry x="-0.2306" y="1" relative="1" as="geometry">
            <mxPoint as="offset" />
          </mxGeometry>
        </mxCell>
        <mxCell id="DZMT5LP3rV5EGNULE5ut-12" style="edgeStyle=orthogonalEdgeStyle;rounded=0;orthogonalLoop=1;jettySize=auto;html=1;exitX=1;exitY=0.25;exitDx=0;exitDy=0;entryX=0.043;entryY=0.323;entryDx=0;entryDy=0;entryPerimeter=0;" edge="1" parent="WIyWlLk6GJQsqaUBKTNV-1" source="DZMT5LP3rV5EGNULE5ut-14" target="DZMT5LP3rV5EGNULE5ut-9">
          <mxGeometry relative="1" as="geometry" />
        </mxCell>
        <mxCell id="DZMT5LP3rV5EGNULE5ut-13" value="Payment Detail" style="edgeLabel;html=1;align=center;verticalAlign=middle;resizable=0;points=[];" vertex="1" connectable="0" parent="DZMT5LP3rV5EGNULE5ut-12">
          <mxGeometry x="-0.2989" y="-1" relative="1" as="geometry">
            <mxPoint x="6" as="offset" />
          </mxGeometry>
        </mxCell>
        <mxCell id="DZMT5LP3rV5EGNULE5ut-14" value="Customer" style="rounded=0;whiteSpace=wrap;html=1;" vertex="1" parent="WIyWlLk6GJQsqaUBKTNV-1">
          <mxGeometry x="430" y="370" width="120" height="60" as="geometry" />
        </mxCell>
        <mxCell id="DZMT5LP3rV5EGNULE5ut-15" style="edgeStyle=orthogonalEdgeStyle;rounded=0;orthogonalLoop=1;jettySize=auto;html=1;exitX=0.75;exitY=0;exitDx=0;exitDy=0;entryX=0.75;entryY=0.958;entryDx=0;entryDy=0;entryPerimeter=0;" edge="1" parent="WIyWlLk6GJQsqaUBKTNV-1" source="DZMT5LP3rV5EGNULE5ut-17" target="DZMT5LP3rV5EGNULE5ut-9">
          <mxGeometry relative="1" as="geometry" />
        </mxCell>
        <mxCell id="DZMT5LP3rV5EGNULE5ut-16" value="Stock Delivery Detail" style="edgeLabel;html=1;align=center;verticalAlign=middle;resizable=0;points=[];" vertex="1" connectable="0" parent="DZMT5LP3rV5EGNULE5ut-15">
          <mxGeometry x="0.2511" y="1" relative="1" as="geometry">
            <mxPoint y="19" as="offset" />
          </mxGeometry>
        </mxCell>
        <mxCell id="DZMT5LP3rV5EGNULE5ut-17" value="Graduation Wear Supplier" style="rounded=0;whiteSpace=wrap;html=1;" vertex="1" parent="WIyWlLk6GJQsqaUBKTNV-1">
          <mxGeometry x="700" y="520" width="120" height="60" as="geometry" />
        </mxCell>
        <mxCell id="DZMT5LP3rV5EGNULE5ut-18" style="edgeStyle=orthogonalEdgeStyle;rounded=0;orthogonalLoop=1;jettySize=auto;html=1;exitX=0;exitY=0.75;exitDx=0;exitDy=0;entryX=0.985;entryY=0.43;entryDx=0;entryDy=0;entryPerimeter=0;" edge="1" parent="WIyWlLk6GJQsqaUBKTNV-1" source="DZMT5LP3rV5EGNULE5ut-20" target="DZMT5LP3rV5EGNULE5ut-9">
          <mxGeometry relative="1" as="geometry" />
        </mxCell>
        <mxCell id="DZMT5LP3rV5EGNULE5ut-19" value="Bank Statement Detail" style="edgeLabel;html=1;align=center;verticalAlign=middle;resizable=0;points=[];" vertex="1" connectable="0" parent="DZMT5LP3rV5EGNULE5ut-18">
          <mxGeometry x="0.6543" y="-2" relative="1" as="geometry">
            <mxPoint x="54" as="offset" />
          </mxGeometry>
        </mxCell>
        <mxCell id="DZMT5LP3rV5EGNULE5ut-20" value="Bank" style="rounded=0;whiteSpace=wrap;html=1;" vertex="1" parent="WIyWlLk6GJQsqaUBKTNV-1">
          <mxGeometry x="980" y="370" width="120" height="60" as="geometry" />
        </mxCell>
      </root>
    </mxGraphModel>
  </diagram>
</mxfile>
